<svg width="411" height="103" viewBox="0 0 411 103" fill="none" xmlns="http://www.w3.org/2000/svg">
<path fill-rule="evenodd" clip-rule="evenodd" d="M0 102.998H52.5362L45.0782 91.8489L103 0H0V102.998Z" fill="#57CFFF"/>
<path fill-rule="evenodd" clip-rule="evenodd" d="M103 103H48.8342L27.4297 68.3796L60.736 34.9474L103 103Z" fill="#4D94FF"/>
<path fill-rule="evenodd" clip-rule="evenodd" d="M26.6207 25.7492H55.8734C61.0545 25.7492 66.0243 27.8079 69.6882 31.4711C73.3515 35.1357 75.4102 40.1047 75.4102 45.2857V74.538C75.4102 76.0349 74.1965 77.2485 72.6996 77.2485H43.447C38.2658 77.2485 33.2967 75.1899 29.6328 71.5267C25.9688 67.8628 23.9102 62.8938 23.9102 57.712V28.4597C23.9102 26.9629 25.1238 25.7492 26.6207 25.7492Z" fill="white"/>
<path fill-rule="evenodd" clip-rule="evenodd" d="M36.1064 35.2356H63.0565V43.1346H53.9959V67.7614H45.1677V43.1346H36.1064V35.2356Z" fill="#4E95FF"/>
<path d="M158.44 37.8H161.86L152.32 48.24L162.76 63H159.52L150.52 50.22L145.48 55.62V63H142.78V37.8H145.48V52.02L158.44 37.8ZM176.688 52.02C176.688 50.748 176.28 49.716 175.464 48.924C174.672 48.108 173.64 47.7 172.368 47.7C171.6 47.7 170.916 47.832 170.316 48.096C169.716 48.36 169.212 48.648 168.804 48.96C168.324 49.344 167.892 49.764 167.508 50.22L165.888 48.6C166.368 48 166.932 47.46 167.58 46.98C168.132 46.572 168.804 46.2 169.596 45.864C170.388 45.528 171.312 45.36 172.368 45.36C173.352 45.36 174.264 45.528 175.104 45.864C175.944 46.2 176.664 46.668 177.264 47.268C177.888 47.868 178.368 48.576 178.704 49.392C179.04 50.208 179.208 51.084 179.208 52.02V63H176.688V60.66C176.328 61.164 175.872 61.62 175.32 62.028C174.84 62.364 174.252 62.676 173.556 62.964C172.86 63.228 172.044 63.36 171.108 63.36C170.196 63.36 169.368 63.216 168.624 62.928C167.88 62.64 167.232 62.268 166.68 61.812C166.152 61.332 165.732 60.792 165.42 60.192C165.132 59.568 164.988 58.944 164.988 58.32C164.988 56.88 165.42 55.716 166.284 54.828C167.148 53.94 168.396 53.364 170.028 53.1L176.688 52.02ZM171.108 61.02C171.924 61.02 172.668 60.888 173.34 60.624C174.036 60.336 174.624 59.94 175.104 59.436C175.608 58.932 175.992 58.332 176.256 57.636C176.544 56.916 176.688 56.124 176.688 55.26V54.18L170.748 55.26C168.588 55.668 167.508 56.688 167.508 58.32C167.508 59.04 167.808 59.676 168.408 60.228C169.032 60.756 169.932 61.02 171.108 61.02ZM187.002 39.96H189.342V45.72H193.122V48.06H189.342V58.32C189.342 59.232 189.546 59.916 189.954 60.372C190.386 60.804 190.962 61.02 191.682 61.02C191.994 61.02 192.294 60.996 192.582 60.948C192.87 60.9 193.122 60.84 193.338 60.768C193.602 60.672 193.83 60.576 194.022 60.48V62.82C193.806 62.916 193.566 63.012 193.302 63.108C193.086 63.18 192.822 63.24 192.51 63.288C192.222 63.336 191.91 63.36 191.574 63.36C190.086 63.36 188.922 62.928 188.082 62.064C187.242 61.2 186.822 59.952 186.822 58.32V48.06H183.582V45.72H185.562C186.522 45.72 187.002 45.12 187.002 43.92V39.96ZM209.225 52.02C209.225 50.748 208.817 49.716 208.001 48.924C207.209 48.108 206.177 47.7 204.905 47.7C204.137 47.7 203.453 47.832 202.853 48.096C202.253 48.36 201.749 48.648 201.341 48.96C200.861 49.344 200.429 49.764 200.045 50.22L198.425 48.6C198.905 48 199.469 47.46 200.117 46.98C200.669 46.572 201.341 46.2 202.133 45.864C202.925 45.528 203.849 45.36 204.905 45.36C205.889 45.36 206.801 45.528 207.641 45.864C208.481 46.2 209.201 46.668 209.801 47.268C210.425 47.868 210.905 48.576 211.241 49.392C211.577 50.208 211.745 51.084 211.745 52.02V63H209.225V60.66C208.865 61.164 208.409 61.62 207.857 62.028C207.377 62.364 206.789 62.676 206.093 62.964C205.397 63.228 204.581 63.36 203.645 63.36C202.733 63.36 201.905 63.216 201.161 62.928C200.417 62.64 199.769 62.268 199.217 61.812C198.689 61.332 198.269 60.792 197.957 60.192C197.669 59.568 197.525 58.944 197.525 58.32C197.525 56.88 197.957 55.716 198.821 54.828C199.685 53.94 200.933 53.364 202.565 53.1L209.225 52.02ZM203.645 61.02C204.461 61.02 205.205 60.888 205.877 60.624C206.573 60.336 207.161 59.94 207.641 59.436C208.145 58.932 208.529 58.332 208.793 57.636C209.081 56.916 209.225 56.124 209.225 55.26V54.18L203.285 55.26C201.125 55.668 200.045 56.688 200.045 58.32C200.045 59.04 200.345 59.676 200.945 60.228C201.569 60.756 202.469 61.02 203.645 61.02ZM220.619 63H218.099V37.8H220.619V63ZM240.858 54.36C240.858 53.424 240.69 52.548 240.354 51.732C240.018 50.916 239.562 50.208 238.986 49.608C238.41 49.008 237.738 48.54 236.97 48.204C236.226 47.868 235.422 47.7 234.558 47.7C233.694 47.7 232.878 47.868 232.11 48.204C231.366 48.54 230.706 49.008 230.13 49.608C229.554 50.208 229.098 50.916 228.762 51.732C228.426 52.548 228.258 53.424 228.258 54.36C228.258 55.296 228.426 56.172 228.762 56.988C229.098 57.804 229.554 58.512 230.13 59.112C230.706 59.688 231.366 60.156 232.11 60.516C232.878 60.852 233.694 61.02 234.558 61.02C235.422 61.02 236.226 60.852 236.97 60.516C237.738 60.18 238.41 59.712 238.986 59.112C239.562 58.512 240.018 57.804 240.354 56.988C240.69 56.172 240.858 55.296 240.858 54.36ZM225.738 54.36C225.738 53.112 225.966 51.936 226.422 50.832C226.902 49.728 227.538 48.78 228.33 47.988C229.122 47.172 230.046 46.536 231.102 46.08C232.182 45.6 233.334 45.36 234.558 45.36C235.782 45.36 236.922 45.6 237.978 46.08C239.058 46.536 239.994 47.172 240.786 47.988C241.578 48.78 242.202 49.728 242.658 50.832C243.138 51.936 243.378 53.112 243.378 54.36C243.378 55.632 243.138 56.82 242.658 57.924C242.202 59.004 241.578 59.952 240.786 60.768C239.994 61.56 239.058 62.196 237.978 62.676C236.922 63.132 235.782 63.36 234.558 63.36C233.334 63.36 232.182 63.132 231.102 62.676C230.046 62.196 229.122 61.56 228.33 60.768C227.538 59.952 226.902 59.004 226.422 57.924C225.966 56.82 225.738 55.632 225.738 54.36ZM250.832 48.24C251.192 47.712 251.648 47.232 252.2 46.8C252.68 46.44 253.256 46.116 253.928 45.828C254.624 45.516 255.452 45.36 256.412 45.36C257.444 45.36 258.392 45.54 259.256 45.9C260.12 46.236 260.852 46.728 261.452 47.376C262.076 48 262.556 48.768 262.892 49.68C263.252 50.592 263.432 51.612 263.432 52.74V63H260.912V52.74C260.912 51.204 260.468 49.98 259.58 49.068C258.716 48.156 257.6 47.7 256.232 47.7C255.464 47.7 254.744 47.844 254.072 48.132C253.424 48.396 252.86 48.78 252.38 49.284C251.9 49.788 251.516 50.4 251.228 51.12C250.964 51.816 250.832 52.596 250.832 53.46V63H248.312V45.72H250.832V48.24ZM293.472 37.8V40.32H285.552V63H282.852V40.32H274.932V37.8H293.472ZM296.427 55.26C296.475 56.028 296.667 56.76 297.003 57.456C297.339 58.152 297.783 58.764 298.335 59.292C298.887 59.82 299.523 60.24 300.243 60.552C300.963 60.864 301.731 61.02 302.547 61.02C303.459 61.02 304.251 60.876 304.923 60.588C305.619 60.276 306.207 59.94 306.687 59.58C307.239 59.148 307.719 58.668 308.127 58.14L309.747 59.76C309.243 60.432 308.631 61.032 307.911 61.56C307.287 62.016 306.531 62.436 305.643 62.82C304.755 63.18 303.723 63.36 302.547 63.36C301.371 63.36 300.255 63.132 299.199 62.676C298.167 62.196 297.255 61.56 296.463 60.768C295.671 59.952 295.047 59.004 294.591 57.924C294.135 56.82 293.907 55.632 293.907 54.36C293.907 53.112 294.135 51.936 294.591 50.832C295.047 49.728 295.659 48.78 296.427 47.988C297.219 47.172 298.119 46.536 299.127 46.08C300.159 45.6 301.239 45.36 302.367 45.36C303.543 45.36 304.635 45.576 305.643 46.008C306.651 46.44 307.527 47.04 308.271 47.808C309.015 48.552 309.591 49.464 309.999 50.544C310.431 51.6 310.647 52.752 310.647 54C310.647 54.192 310.635 54.372 310.611 54.54C310.587 54.684 310.563 54.816 310.539 54.936C310.515 55.08 310.491 55.2 310.467 55.296L296.427 55.26ZM302.367 47.7C301.599 47.7 300.867 47.844 300.171 48.132C299.499 48.42 298.899 48.816 298.371 49.32C297.843 49.824 297.411 50.4 297.075 51.048C296.739 51.696 296.523 52.38 296.427 53.1H308.127C308.031 52.332 307.815 51.624 307.479 50.976C307.167 50.304 306.759 49.728 306.255 49.248C305.751 48.768 305.163 48.396 304.491 48.132C303.843 47.844 303.135 47.7 302.367 47.7ZM324.206 49.5C323.942 49.164 323.63 48.864 323.27 48.6C322.934 48.384 322.526 48.18 322.046 47.988C321.59 47.796 321.05 47.7 320.426 47.7C319.442 47.7 318.65 47.964 318.05 48.492C317.474 49.02 317.186 49.596 317.186 50.22C317.186 50.844 317.414 51.336 317.87 51.696C318.35 52.056 318.926 52.356 319.598 52.596C320.294 52.836 321.05 53.076 321.866 53.316C322.682 53.532 323.426 53.832 324.098 54.216C324.794 54.576 325.37 55.068 325.826 55.692C326.306 56.316 326.546 57.132 326.546 58.14C326.546 58.86 326.402 59.544 326.114 60.192C325.826 60.816 325.406 61.368 324.854 61.848C324.326 62.304 323.666 62.676 322.874 62.964C322.106 63.228 321.23 63.36 320.246 63.36C319.166 63.36 318.23 63.204 317.438 62.892C316.646 62.58 315.986 62.232 315.458 61.848C314.834 61.416 314.33 60.9 313.946 60.3L315.746 58.5C316.082 58.98 316.466 59.4 316.898 59.76C317.282 60.096 317.75 60.396 318.302 60.66C318.878 60.9 319.526 61.02 320.246 61.02C321.518 61.02 322.466 60.744 323.09 60.192C323.714 59.64 324.026 58.956 324.026 58.14C324.026 57.492 323.786 56.976 323.306 56.592C322.85 56.208 322.274 55.896 321.578 55.656C320.906 55.392 320.162 55.152 319.346 54.936C318.53 54.696 317.774 54.396 317.078 54.036C316.406 53.676 315.83 53.196 315.35 52.596C314.894 51.996 314.666 51.204 314.666 50.22C314.666 49.596 314.798 48.996 315.062 48.42C315.35 47.82 315.746 47.304 316.25 46.872C316.754 46.416 317.354 46.056 318.05 45.792C318.77 45.504 319.562 45.36 320.426 45.36C321.338 45.36 322.13 45.492 322.802 45.756C323.498 45.996 324.086 46.26 324.566 46.548C325.118 46.884 325.598 47.268 326.006 47.7L324.206 49.5ZM333.086 39.96H335.426V45.72H339.206V48.06H335.426V58.32C335.426 59.232 335.63 59.916 336.038 60.372C336.47 60.804 337.046 61.02 337.766 61.02C338.078 61.02 338.378 60.996 338.666 60.948C338.954 60.9 339.206 60.84 339.422 60.768C339.686 60.672 339.914 60.576 340.106 60.48V62.82C339.89 62.916 339.65 63.012 339.386 63.108C339.17 63.18 338.906 63.24 338.594 63.288C338.306 63.336 337.994 63.36 337.658 63.36C336.17 63.36 335.006 62.928 334.166 62.064C333.326 61.2 332.906 59.952 332.906 58.32V48.06H329.666V45.72H331.646C332.606 45.72 333.086 45.12 333.086 43.92V39.96ZM347.029 50.4C347.029 51.888 347.293 53.268 347.821 54.54C348.349 55.812 349.069 56.916 349.981 57.852C350.917 58.788 352.009 59.52 353.257 60.048C354.505 60.576 355.849 60.84 357.289 60.84C358.729 60.84 360.073 60.576 361.321 60.048C362.569 59.52 363.649 58.788 364.561 57.852C365.497 56.916 366.229 55.812 366.757 54.54C367.285 53.268 367.549 51.888 367.549 50.4C367.549 48.912 367.285 47.532 366.757 46.26C366.229 44.988 365.497 43.884 364.561 42.948C363.649 42.012 362.569 41.28 361.321 40.752C360.073 40.224 358.729 39.96 357.289 39.96C355.849 39.96 354.505 40.224 353.257 40.752C352.009 41.28 350.917 42.012 349.981 42.948C349.069 43.884 348.349 44.988 347.821 46.26C347.293 47.532 347.029 48.912 347.029 50.4ZM370.249 50.4C370.249 52.2 369.913 53.892 369.241 55.476C368.569 57.036 367.645 58.404 366.469 59.58C365.293 60.756 363.913 61.68 362.329 62.352C360.769 63.024 359.089 63.36 357.289 63.36C355.489 63.36 353.797 63.024 352.213 62.352C350.653 61.68 349.285 60.756 348.109 59.58C346.933 58.404 346.009 57.036 345.337 55.476C344.665 53.892 344.329 52.2 344.329 50.4C344.329 48.6 344.665 46.92 345.337 45.36C346.009 43.776 346.933 42.396 348.109 41.22C349.285 40.044 350.653 39.12 352.213 38.448C353.797 37.776 355.489 37.44 357.289 37.44C359.089 37.44 360.769 37.776 362.329 38.448C363.913 39.12 365.293 40.044 366.469 41.22C367.645 42.396 368.569 43.776 369.241 45.36C369.913 46.92 370.249 48.6 370.249 50.4ZM378.054 54.36C378.054 55.272 378.222 56.136 378.558 56.952C378.918 57.744 379.386 58.44 379.962 59.04C380.538 59.64 381.186 60.12 381.906 60.48C382.65 60.84 383.406 61.02 384.174 61.02C384.894 61.02 385.59 60.852 386.262 60.516C386.958 60.18 387.57 59.712 388.098 59.112C388.65 58.512 389.094 57.804 389.43 56.988C389.766 56.172 389.934 55.296 389.934 54.36C389.934 53.424 389.766 52.548 389.43 51.732C389.094 50.916 388.65 50.208 388.098 49.608C387.57 49.008 386.958 48.54 386.262 48.204C385.59 47.868 384.894 47.7 384.174 47.7C383.406 47.7 382.65 47.88 381.906 48.24C381.186 48.6 380.538 49.08 379.962 49.68C379.386 50.28 378.918 50.988 378.558 51.804C378.222 52.62 378.054 53.472 378.054 54.36ZM378.054 70.56H375.534V45.72H378.054V48.42C378.486 47.844 379.014 47.34 379.638 46.908C380.166 46.524 380.802 46.176 381.546 45.864C382.29 45.528 383.166 45.36 384.174 45.36C385.254 45.36 386.286 45.6 387.27 46.08C388.278 46.536 389.166 47.172 389.934 47.988C390.702 48.78 391.314 49.728 391.77 50.832C392.226 51.936 392.454 53.112 392.454 54.36C392.454 55.632 392.226 56.82 391.77 57.924C391.314 59.004 390.702 59.952 389.934 60.768C389.166 61.56 388.278 62.196 387.27 62.676C386.286 63.132 385.254 63.36 384.174 63.36C383.166 63.36 382.29 63.204 381.546 62.892C380.802 62.58 380.166 62.232 379.638 61.848C379.014 61.416 378.486 60.9 378.054 60.3V70.56ZM406.015 49.5C405.751 49.164 405.439 48.864 405.079 48.6C404.743 48.384 404.335 48.18 403.855 47.988C403.399 47.796 402.859 47.7 402.235 47.7C401.251 47.7 400.459 47.964 399.859 48.492C399.283 49.02 398.995 49.596 398.995 50.22C398.995 50.844 399.223 51.336 399.679 51.696C400.159 52.056 400.735 52.356 401.407 52.596C402.103 52.836 402.859 53.076 403.675 53.316C404.491 53.532 405.235 53.832 405.907 54.216C406.603 54.576 407.179 55.068 407.635 55.692C408.115 56.316 408.355 57.132 408.355 58.14C408.355 58.86 408.211 59.544 407.923 60.192C407.635 60.816 407.215 61.368 406.663 61.848C406.135 62.304 405.475 62.676 404.683 62.964C403.915 63.228 403.039 63.36 402.055 63.36C400.975 63.36 400.039 63.204 399.247 62.892C398.455 62.58 397.795 62.232 397.267 61.848C396.643 61.416 396.139 60.9 395.755 60.3L397.555 58.5C397.891 58.98 398.275 59.4 398.707 59.76C399.091 60.096 399.559 60.396 400.111 60.66C400.687 60.9 401.335 61.02 402.055 61.02C403.327 61.02 404.275 60.744 404.899 60.192C405.523 59.64 405.835 58.956 405.835 58.14C405.835 57.492 405.595 56.976 405.115 56.592C404.659 56.208 404.083 55.896 403.387 55.656C402.715 55.392 401.971 55.152 401.155 54.936C400.339 54.696 399.583 54.396 398.887 54.036C398.215 53.676 397.639 53.196 397.159 52.596C396.703 51.996 396.475 51.204 396.475 50.22C396.475 49.596 396.607 48.996 396.871 48.42C397.159 47.82 397.555 47.304 398.059 46.872C398.563 46.416 399.163 46.056 399.859 45.792C400.579 45.504 401.371 45.36 402.235 45.36C403.147 45.36 403.939 45.492 404.611 45.756C405.307 45.996 405.895 46.26 406.375 46.548C406.927 46.884 407.407 47.268 407.815 47.7L406.015 49.5Z" fill="black"/>
</svg>
